REM DIRINDEX 1\2,1\3,1\4,1\5
REM DIRNAME folder01,folder02,folder03,folder04,folder05
TITLE ""
FILE "1800_146.mp3" MP3
  TRACK 01 AUDIO
    TITLE "0:"
    INDEX 01 00:00:00
  TRACK 02 AUDIO
    TITLE "2:cjc044_4464"
    INDEX 01 00:00:01
  TRACK 03 AUDIO
    TITLE "0:"
    INDEX 01 00:01:26
  TRACK 04 AUDIO
    TITLE "3:cjc044_4465"
    INDEX 01 00:02:10
  TRACK 05 AUDIO
    TITLE "0:"
    INDEX 01 00:03:10
  TRACK 06 AUDIO
    TITLE "4:cjc044_4466"
    INDEX 01 00:03:70
  TRACK 07 AUDIO
    TITLE "0:"
    INDEX 01 00:05:18
  TRACK 08 AUDIO
    TITLE "2:cjc044_4467"
    INDEX 01 00:06:73
  TRACK 09 AUDIO
    TITLE "0:"
    INDEX 01 00:08:19
  TRACK 10 AUDIO
    TITLE "3:cjc044_4468"
    INDEX 01 00:09:02
  TRACK 11 AUDIO
    TITLE "0:"
    INDEX 01 00:10:08
  TRACK 12 AUDIO
    TITLE "4:cjc044_4469"
    INDEX 01 00:10:65
  TRACK 13 AUDIO
    TITLE "0:"
    INDEX 01 00:12:12
  TRACK 14 AUDIO
    TITLE "2:cjc044_4470"
    INDEX 01 00:13:67
  TRACK 15 AUDIO
    TITLE "0:"
    INDEX 01 00:15:25
  TRACK 16 AUDIO
    TITLE "3:cjc044_4471"
    INDEX 01 00:16:06
  TRACK 17 AUDIO
    TITLE "0:"
    INDEX 01 00:17:00
  TRACK 18 AUDIO
    TITLE "4:cjc044_4472"
    INDEX 01 00:17:59
  TRACK 19 AUDIO
    TITLE "0:"
    INDEX 01 00:19:18
  TRACK 20 AUDIO
    TITLE "2:cjc044_4473"
    INDEX 01 00:21:06
  TRACK 21 AUDIO
    TITLE "0:"
    INDEX 01 00:22:30
  TRACK 22 AUDIO
    TITLE "3:cjc044_4474"
    INDEX 01 00:23:08
  TRACK 23 AUDIO
    TITLE "0:"
    INDEX 01 00:24:33
  TRACK 24 AUDIO
    TITLE "4:cjc044_4475"
    INDEX 01 00:25:19
  TRACK 25 AUDIO
    TITLE "0:"
    INDEX 01 00:26:44
  TRACK 26 AUDIO
    TITLE "2:cjc044_4476"
    INDEX 01 00:28:21
  TRACK 27 AUDIO
    TITLE "0:"
    INDEX 01 00:29:60
  TRACK 28 AUDIO
    TITLE "3:cjc044_4477"
    INDEX 01 00:30:36
  TRACK 29 AUDIO
    TITLE "0:"
    INDEX 01 00:31:55
  TRACK 30 AUDIO
    TITLE "4:cjc044_4478"
    INDEX 01 00:32:31
  TRACK 31 AUDIO
    TITLE "0:"
    INDEX 01 00:33:69
  TRACK 32 AUDIO
    TITLE "2:cjc044_4479"
    INDEX 01 00:35:47
  TRACK 33 AUDIO
    TITLE "0:"
    INDEX 01 00:37:03
  TRACK 34 AUDIO
    TITLE "3:cjc044_4480"
    INDEX 01 00:37:59
  TRACK 35 AUDIO
    TITLE "0:"
    INDEX 01 00:38:67
  TRACK 36 AUDIO
    TITLE "4:cjc044_4481"
    INDEX 01 00:39:39
  TRACK 37 AUDIO
    TITLE "0:"
    INDEX 01 00:40:73
  TRACK 38 AUDIO
    TITLE "2:cjc044_4482"
    INDEX 01 00:42:53
  TRACK 39 AUDIO
    TITLE "0:"
    INDEX 01 00:44:32
  TRACK 40 AUDIO
    TITLE "3:cjc044_4483"
    INDEX 01 00:45:02
  TRACK 41 AUDIO
    TITLE "0:"
    INDEX 01 00:46:35
  TRACK 42 AUDIO
    TITLE "4:cjc044_4484"
    INDEX 01 00:47:17
  TRACK 43 AUDIO
    TITLE "0:"
    INDEX 01 00:48:71
  TRACK 44 AUDIO
    TITLE "2:cjc044_4485"
    INDEX 01 00:50:46
  TRACK 45 AUDIO
    TITLE "0:"
    INDEX 01 00:52:14
  TRACK 46 AUDIO
    TITLE "3:cjc044_4486"
    INDEX 01 00:52:69
  TRACK 47 AUDIO
    TITLE "0:"
    INDEX 01 00:54:50
  TRACK 48 AUDIO
    TITLE "4:cjc044_4487"
    INDEX 01 00:55:28
  TRACK 49 AUDIO
    TITLE "0:"
    INDEX 01 00:56:69
  TRACK 50 AUDIO
    TITLE "2:cjc044_4488"
    INDEX 01 00:58:52
  TRACK 51 AUDIO
    TITLE "0:"
    INDEX 01 01:00:00
  TRACK 52 AUDIO
    TITLE "3:cjc044_4489"
    INDEX 01 01:00:55
  TRACK 53 AUDIO
    TITLE "0:"
    INDEX 01 01:02:14
  TRACK 54 AUDIO
    TITLE "4:cjc044_4490"
    INDEX 01 01:02:73
  TRACK 55 AUDIO
    TITLE "0:"
    INDEX 01 01:04:21
  TRACK 56 AUDIO
    TITLE "2:cjc044_4491"
    INDEX 01 01:06:00
  TRACK 57 AUDIO
    TITLE "0:"
    INDEX 01 01:07:43
  TRACK 58 AUDIO
    TITLE "3:cjc044_4492"
    INDEX 01 01:08:25
  TRACK 59 AUDIO
    TITLE "0:"
    INDEX 01 01:09:50
  TRACK 60 AUDIO
    TITLE "4:cjc044_4493"
    INDEX 01 01:10:33
  TRACK 61 AUDIO
    TITLE "0:"
    INDEX 01 01:11:74
  TRACK 62 AUDIO
    TITLE "2:cjc044_4494"
    INDEX 01 01:13:57
  TRACK 63 AUDIO
    TITLE "0:"
    INDEX 01 01:14:68
  TRACK 64 AUDIO
    TITLE "3:cjc044_4495"
    INDEX 01 01:15:48
  TRACK 65 AUDIO
    TITLE "0:"
    INDEX 01 01:16:48
  TRACK 66 AUDIO
    TITLE "4:cjc044_4496"
    INDEX 01 01:17:28
  TRACK 67 AUDIO
    TITLE "0:"
    INDEX 01 01:18:39
  TRACK 68 AUDIO
    TITLE "2:cjc044_4497"
    INDEX 01 01:20:18
  TRACK 69 AUDIO
    TITLE "0:"
    INDEX 01 01:21:47
  TRACK 70 AUDIO
    TITLE "3:cjc044_4498"
    INDEX 01 01:22:33
  TRACK 71 AUDIO
    TITLE "0:"
    INDEX 01 01:23:52
  TRACK 72 AUDIO
    TITLE "4:cjc044_4499"
    INDEX 01 01:24:36
  TRACK 73 AUDIO
    TITLE "0:"
    INDEX 01 01:25:68
  TRACK 74 AUDIO
    TITLE "2:cjc044_4500"
    INDEX 01 01:27:50
  TRACK 75 AUDIO
    TITLE "0:"
    INDEX 01 01:28:61
  TRACK 76 AUDIO
    TITLE "3:cjc044_4501"
    INDEX 01 01:29:41
  TRACK 77 AUDIO
    TITLE "0:"
    INDEX 01 01:30:69
  TRACK 78 AUDIO
    TITLE "4:cjc044_4502"
    INDEX 01 01:31:51
  TRACK 79 AUDIO
    TITLE "0:"
    INDEX 01 01:32:62
  TRACK 80 AUDIO
    TITLE "2:cjc044_4503"
    INDEX 01 01:34:44
  TRACK 81 AUDIO
    TITLE "0:"
    INDEX 01 01:36:05
  TRACK 82 AUDIO
    TITLE "3:cjc044_4504"
    INDEX 01 01:36:64
  TRACK 83 AUDIO
    TITLE "0:"
    INDEX 01 01:38:06
  TRACK 84 AUDIO
    TITLE "4:cjc044_4505"
    INDEX 01 01:38:65
  TRACK 85 AUDIO
    TITLE "0:"
    INDEX 01 01:40:25
  TRACK 86 AUDIO
    TITLE "2:cjc044_4506"
    INDEX 01 01:42:12
  TRACK 87 AUDIO
    TITLE "0:"
    INDEX 01 01:43:25
  TRACK 88 AUDIO
    TITLE "3:cjc044_4507"
    INDEX 01 01:44:09
  TRACK 89 AUDIO
    TITLE "0:"
    INDEX 01 01:45:04
  TRACK 90 AUDIO
    TITLE "4:cjc044_4508"
    INDEX 01 01:45:65
  TRACK 91 AUDIO
    TITLE "0:"
    INDEX 01 01:47:03
  TRACK 92 AUDIO
    TITLE "2:cjc044_4509"
    INDEX 01 01:48:61
  TRACK 93 AUDIO
    TITLE "0:"
    INDEX 01 01:50:19
  TRACK 94 AUDIO
    TITLE "3:cjc044_4510"
    INDEX 01 01:51:03
  TRACK 95 AUDIO
    TITLE "0:"
    INDEX 01 01:52:49
  TRACK 96 AUDIO
    TITLE "4:cjc044_4511"
    INDEX 01 01:53:21
  TRACK 97 AUDIO
    TITLE "0:"
    INDEX 01 01:54:56
  TRACK 98 AUDIO
    TITLE "2:cjc044_4512"
    INDEX 01 01:56:43
  TRACK 99 AUDIO
    TITLE "0:"
    INDEX 01 01:57:55
  TRACK 100 AUDIO
    TITLE "3:cjc044_4513"
    INDEX 01 01:58:42
  TRACK 101 AUDIO
    TITLE "0:"
    INDEX 01 01:59:28
  TRACK 102 AUDIO
    TITLE "4:cjc044_4514"
    INDEX 01 02:00:14
  TRACK 103 AUDIO
    TITLE "0:"
    INDEX 01 02:01:31
  TRACK 104 AUDIO
    TITLE "2:cjc044_4515"
    INDEX 01 02:03:14
  TRACK 105 AUDIO
    TITLE "0:"
    INDEX 01 02:04:51
  TRACK 106 AUDIO
    TITLE "3:cjc044_4516"
    INDEX 01 02:05:33
  TRACK 107 AUDIO
    TITLE "0:"
    INDEX 01 02:06:55
  TRACK 108 AUDIO
    TITLE "4:cjc044_4517"
    INDEX 01 02:07:39
  TRACK 109 AUDIO
    TITLE "0:"
    INDEX 01 02:09:03
  TRACK 110 AUDIO
    TITLE "2:cjc044_4518"
    INDEX 01 02:10:61
  TRACK 111 AUDIO
    TITLE "0:"
    INDEX 01 02:12:15
  TRACK 112 AUDIO
    TITLE "3:cjc044_4519"
    INDEX 01 02:12:68
  TRACK 113 AUDIO
    TITLE "0:"
    INDEX 01 02:14:49
  TRACK 114 AUDIO
    TITLE "4:cjc044_4520"
    INDEX 01 02:15:31
  TRACK 115 AUDIO
    TITLE "0:"
    INDEX 01 02:16:60
